<?xml version="1.0" encoding="utf-8"?>
<!-- Generator: Adobe Illustrator 18.0.0, SVG Export Plug-In . SVG Version: 6.00 Build 0)  -->
<!DOCTYPE svg PUBLIC "-//W3C//DTD SVG 1.1//EN" "http://www.w3.org/Graphics/SVG/1.1/DTD/svg11.dtd">
<svg version="1.1" id="Layer_1" xmlns="http://www.w3.org/2000/svg" xmlns:xlink="http://www.w3.org/1999/xlink" x="0px" y="0px"
	 viewBox="0 0 607.4 242" enable-background="new 0 0 607.4 242" xml:space="preserve">
<path opacity="0.1" stroke="#000000" stroke-width="2" stroke-miterlimit="10" d="M601.5,72.5l-55.1,31.8L423,104.6l-55.5-32.1l0,0
	c23.4-40.4,67-67.5,117-67.5C534.5,4.9,578.1,32.1,601.5,72.5"/>
<path fill="none" stroke="#000000" stroke-width="2" stroke-linecap="square" stroke-miterlimit="10" d="M601.5,72.5l-55.1,31.8
	L423,104.6l-55.5-32.1l0,0c23.4-40.4,67-67.5,117-67.5C534.5,4.9,578.1,32.1,601.5,72.5"/>
<polygon fill="#FFFFFF" stroke="#000000" stroke-width="2" stroke-miterlimit="10" points="443.2,211.5 402,140 443.2,68.6 
	525.7,68.6 567,140 525.7,211.5 "/>
<text transform="matrix(1 0 0 1 473.8592 150.6493)" font-family="'AmericanTypewriter'" font-size="31.0218">Φ</text>
<text transform="matrix(1 0 0 1 473.8514 42.3858)" font-family="'AmericanTypewriter'" font-size="16.3273">SC</text>
<text transform="matrix(1 0 0 1 489.7517 233.8818)" font-family="'AmericanTypewriter'" font-size="16.3273">Wire</text>
<g opacity="0.1">
	<rect x="5.4" y="85.9" fill="#939598" width="341.9" height="102.1"/>
	<rect x="5.4" y="85.9" fill="none" stroke="#000000" stroke-width="2" stroke-miterlimit="10" width="341.9" height="102.1"/>
	<rect x="5.4" y="85.9" fill="#939598" width="341.9" height="102.1"/>
	<rect x="5.4" y="85.9" fill="#939598" width="341.9" height="102.1"/>
	<rect x="5.4" y="85.9" fill="#939598" width="341.9" height="102.1"/>
	<rect x="5.4" y="85.9" width="341.9" height="102.1"/>
</g>
<path fill="none" stroke="#000000" stroke-width="2" stroke-miterlimit="10" d="M279.1,85.9c0,18.8,15.2,34.1,34.1,34.1
	c18.8,0,34.1-15.2,34.1-34.1"/>
<path fill="none" stroke="#000000" stroke-width="2" stroke-linecap="square" stroke-miterlimit="10" d="M177,120"/>
<path fill="none" stroke="#000000" stroke-width="2" stroke-linecap="square" stroke-miterlimit="10" d="M142.9,85.9"/>
<path fill="none" stroke="#000000" stroke-width="2" stroke-miterlimit="10" d="M142.9,85.9c0,18.8,15.2,34.1,34.1,34.1
	S211,104.7,211,85.9"/>
<g>
	<g>
		
			<line fill="none" stroke="#000000" stroke-width="2" stroke-linecap="square" stroke-miterlimit="10" x1="347.2" y1="85.9" x2="341.7" y2="85.9"/>
		
			<line fill="none" stroke="#000000" stroke-width="2" stroke-linecap="square" stroke-miterlimit="10" stroke-dasharray="11.4219,11.4219" x1="330.3" y1="85.9" x2="290.3" y2="85.9"/>
		
			<line fill="none" stroke="#000000" stroke-width="2" stroke-linecap="square" stroke-miterlimit="10" x1="284.6" y1="85.9" x2="279.1" y2="85.9"/>
	</g>
</g>
<g>
	<g>
		
			<line fill="none" stroke="#000000" stroke-width="2" stroke-linecap="square" stroke-miterlimit="10" x1="73.5" y1="85.9" x2="68" y2="85.9"/>
		
			<line fill="none" stroke="#000000" stroke-width="2" stroke-linecap="square" stroke-miterlimit="10" stroke-dasharray="11.1589,11.1589" x1="56.8" y1="85.9" x2="17.8" y2="85.9"/>
		
			<line fill="none" stroke="#000000" stroke-width="2" stroke-linecap="square" stroke-miterlimit="10" x1="12.2" y1="85.9" x2="6.7" y2="85.9"/>
	</g>
</g>
<g>
	<g>
		<path fill="none" stroke="#000000" stroke-width="2" stroke-linecap="square" stroke-miterlimit="10" d="M179.1,119.9
			c17.8-1.1,31.9-15.9,31.9-34"/>
		<g>
			<polygon points="186.6,127.2 187.8,125.6 179.9,119.7 186.3,112.2 184.8,110.9 177,120 			"/>
		</g>
	</g>
</g>
<path fill="none" stroke="#000000" stroke-width="2" stroke-miterlimit="10" d="M211,85.9c0,18.8,15.2,34.1,34.1,34.1
	s34.1-15.2,34.1-34.1"/>
<g>
	<g>
		<path fill="none" stroke="#000000" stroke-width="2" stroke-linecap="square" stroke-miterlimit="10" d="M247.2,119.9
			c17.8-1.1,31.9-15.9,31.9-34"/>
		<g>
			<polygon points="254.7,127.2 255.9,125.6 248,119.7 254.4,112.2 252.9,110.9 245.1,120 			"/>
		</g>
	</g>
</g>
<g>
	<g>
		<path fill="none" stroke="#000000" stroke-width="2" stroke-linecap="square" stroke-miterlimit="10" d="M315.3,119.9
			c17.8-1.1,31.9-15.9,31.9-34"/>
		<g>
			<polygon points="322.8,127.2 324,125.6 316.1,119.7 322.5,112.2 321,110.9 313.2,120 			"/>
		</g>
	</g>
</g>
<path fill="none" stroke="#000000" stroke-width="2" stroke-miterlimit="10" d="M6.7,85.9c0,18.8,15.2,34.1,34.1,34.1
	s34.1-15.2,34.1-34.1"/>
<g>
	<g>
		<path fill="none" stroke="#000000" stroke-width="2" stroke-linecap="square" stroke-miterlimit="10" d="M42.9,119.9
			c17.8-1.1,31.9-15.9,31.9-34"/>
		<g>
			<polygon points="50.4,127.2 51.6,125.6 43.7,119.7 50.1,112.2 48.6,110.9 40.7,120 			"/>
		</g>
	</g>
</g>
<path fill="none" stroke="#000000" stroke-width="2" stroke-miterlimit="10" d="M74.8,85.9c0,18.8,15.2,34.1,34.1,34.1
	s34.1-15.2,34.1-34.1"/>
<g>
	<g>
		<path fill="none" stroke="#000000" stroke-width="2" stroke-linecap="square" stroke-miterlimit="10" d="M111,119.9
			c17.8-1.1,31.9-15.9,31.9-34"/>
		<g>
			<polygon points="118.5,127.2 119.7,125.6 111.8,119.7 118.2,112.2 116.7,110.9 108.8,120 			"/>
		</g>
	</g>
</g>
<path fill="none" stroke="#000000" stroke-width="2" stroke-miterlimit="10" d="M74.8,188c0-18.8-15.2-34.1-34.1-34.1
	S6.7,169.2,6.7,188"/>
<path fill="none" stroke="#000000" stroke-width="2" stroke-linecap="square" stroke-miterlimit="10" d="M177,153.9"/>
<path fill="none" stroke="#000000" stroke-width="2" stroke-linecap="square" stroke-miterlimit="10" d="M211,188"/>
<path fill="none" stroke="#000000" stroke-width="2" stroke-miterlimit="10" d="M211,188c0-18.8-15.2-34.1-34.1-34.1
	s-34.1,15.2-34.1,34.1"/>
<g>
	<g>
		
			<line fill="none" stroke="#000000" stroke-width="2" stroke-linecap="square" stroke-miterlimit="10" x1="6.7" y1="188" x2="12.2" y2="188"/>
		
			<line fill="none" stroke="#000000" stroke-width="2" stroke-linecap="square" stroke-miterlimit="10" stroke-dasharray="11.4219,11.4219" x1="23.6" y1="188" x2="63.6" y2="188"/>
		
			<line fill="none" stroke="#000000" stroke-width="2" stroke-linecap="square" stroke-miterlimit="10" x1="69.3" y1="188" x2="74.8" y2="188"/>
	</g>
</g>
<g>
	<g>
		
			<line fill="none" stroke="#000000" stroke-width="2" stroke-linecap="square" stroke-miterlimit="10" x1="280.4" y1="188" x2="285.9" y2="188"/>
		
			<line fill="none" stroke="#000000" stroke-width="2" stroke-linecap="square" stroke-miterlimit="10" stroke-dasharray="11.1589,11.1589" x1="297.1" y1="188" x2="336.1" y2="188"/>
		
			<line fill="none" stroke="#000000" stroke-width="2" stroke-linecap="square" stroke-miterlimit="10" x1="341.7" y1="188" x2="347.2" y2="188"/>
	</g>
</g>
<g>
	<g>
		<path fill="none" stroke="#000000" stroke-width="2" stroke-linecap="square" stroke-miterlimit="10" d="M174.8,154
			c-17.8,1.1-31.9,15.9-31.9,34"/>
		<g>
			<polygon points="167.3,146.8 166.1,148.4 174,154.3 167.6,161.7 169.1,163 177,153.9 			"/>
		</g>
	</g>
</g>
<path fill="none" stroke="#000000" stroke-width="2" stroke-miterlimit="10" d="M142.9,188c0-18.8-15.2-34.1-34.1-34.1
	S74.8,169.2,74.8,188"/>
<g>
	<g>
		<path fill="none" stroke="#000000" stroke-width="2" stroke-linecap="square" stroke-miterlimit="10" d="M106.7,154
			c-17.8,1.1-31.9,15.9-31.9,34"/>
		<g>
			<polygon points="99.2,146.8 98,148.4 105.9,154.3 99.5,161.7 101,163 108.8,153.9 			"/>
		</g>
	</g>
</g>
<g>
	<g>
		<path fill="none" stroke="#000000" stroke-width="2" stroke-linecap="square" stroke-miterlimit="10" d="M38.6,154
			c-17.8,1.1-31.9,15.9-31.9,34"/>
		<g>
			<polygon points="31.1,146.8 29.9,148.4 37.8,154.3 31.4,161.7 32.9,163 40.7,153.9 			"/>
		</g>
	</g>
</g>
<path fill="none" stroke="#000000" stroke-width="2" stroke-miterlimit="10" d="M347.2,188c0-18.8-15.2-34.1-34.1-34.1
	c-18.8,0-34.1,15.2-34.1,34.1"/>
<g>
	<g>
		<path fill="none" stroke="#000000" stroke-width="2" stroke-linecap="square" stroke-miterlimit="10" d="M311,154
			c-17.8,1.1-31.9,15.9-31.9,34"/>
		<g>
			<polygon points="303.5,146.8 302.3,148.4 310.3,154.3 303.8,161.7 305.3,163 313.2,153.9 			"/>
		</g>
	</g>
</g>
<path fill="none" stroke="#000000" stroke-width="2" stroke-miterlimit="10" d="M279.1,188c0-18.8-15.2-34.1-34.1-34.1
	S211,169.2,211,188"/>
<g>
	<g>
		<path fill="none" stroke="#000000" stroke-width="2" stroke-linecap="square" stroke-miterlimit="10" d="M242.9,154
			c-17.8,1.1-31.9,15.9-31.9,34"/>
		<g>
			<polygon points="235.4,146.8 234.2,148.4 242.1,154.3 235.7,161.7 237.2,163 245.1,153.9 			"/>
		</g>
	</g>
</g>
<line fill="none" stroke="#000000" stroke-width="2" stroke-miterlimit="10" x1="279.1" y1="85.9" x2="73.5" y2="85.9"/>
<line fill="none" stroke="#000000" stroke-width="2" stroke-miterlimit="10" x1="279.1" y1="188" x2="73.5" y2="188"/>
<ellipse fill="none" stroke="#000000" stroke-miterlimit="10" cx="266.6" cy="53.5" rx="12.7" ry="12.8"/>
<circle fill="none" stroke="#000000" stroke-width="2" stroke-miterlimit="10" cx="266.6" cy="53.5" r="0.2"/>
<text transform="matrix(1 0 0 1 285.346 58.7629)" font-family="'AmericanTypewriter'" font-size="20">B-field</text>
</svg>
